<svg width="158" height="32" viewBox="0 0 158 32" fill="none" xmlns="http://www.w3.org/2000/svg">
                  <g clip-path="url(#clip0_94_2297)">
                    <path fill-rule="evenodd" clip-rule="evenodd" d="M79.7475 0.184082H84.3851V31.3674H79.7475V0.184082ZM122.821 0.184082H127.459V16.4877L134.406 9.45344H140.572L131.074 18.9452L142.088 31.3674H136.002L127.838 22.0787L127.459 22.4579V31.3674H122.821V0.184082ZM28.1189 11.0508C29.5804 9.65168 31.4213 8.94968 33.6134 8.94968C36.4378 8.94968 38.6075 9.96554 40.0281 12.0405C40.9218 13.3434 41.3259 15.3332 41.3259 17.9168V31.3674H36.6883V18.0175C36.6883 16.3522 36.3753 15.2069 35.834 14.4946C35.1752 13.6363 34.1954 13.1813 32.8069 13.1813C31.393 13.1813 30.3137 13.6653 29.5123 14.6145L29.5098 14.6175C28.6177 15.6577 28.1189 17.3916 28.1189 19.9319V31.3674H23.4814V9.45344H28.1189V11.0508ZM59.6589 12.2694C61.8782 10.0524 64.6813 8.94968 68.0287 8.94968C70.5483 8.94968 72.818 9.65116 74.8211 11.0562L75.0358 11.2066V17.2508L74.1361 16.1133C72.5876 14.1554 70.5509 13.1813 67.9783 13.1813C66.0582 13.1813 64.4377 13.8367 63.0882 15.1538L63.084 15.158C61.7591 16.4203 61.0725 18.1743 61.0725 20.486C61.0725 22.7977 61.7591 24.5518 63.084 25.814C64.4341 27.1007 66.0398 27.7403 67.9279 27.7403C70.4575 27.7403 72.5698 26.7228 74.2952 24.6476L75.187 23.5748V29.5582L74.9797 29.7091C72.9109 31.216 70.5887 31.9719 68.0287 31.9719C64.6535 31.9719 61.8347 30.9068 59.6127 28.7571L59.6101 28.7543L59.6069 28.7514C57.4217 26.5674 56.3341 23.8163 56.3341 20.5364C56.3341 17.2227 57.439 14.4538 59.6589 12.2694ZM102.733 12.2694C104.952 10.0524 107.755 8.94968 111.102 8.94968C113.622 8.94968 115.891 9.65116 117.895 11.0562L118.109 11.2066V17.2508L117.21 16.1133C115.661 14.1554 113.625 13.1813 111.052 13.1813C109.132 13.1813 107.511 13.8367 106.162 15.1538L106.158 15.158C104.833 16.4202 104.146 18.1743 104.146 20.486C104.146 22.7977 104.833 24.5518 106.158 25.814C107.508 27.1007 109.113 27.7403 111.002 27.7403C113.531 27.7403 115.643 26.7228 117.369 24.6476L118.261 23.5748V29.5582L118.053 29.7091C115.985 31.216 113.662 31.9719 111.102 31.9719C107.727 31.9719 104.908 30.9068 102.686 28.7571L102.684 28.7543L102.681 28.7514C100.495 26.5674 99.4077 23.8163 99.4077 20.5364C99.4077 17.2227 100.513 14.4538 102.733 12.2694ZM145.663 10.6428C146.914 9.5027 148.522 8.94968 150.439 8.94968C151.848 8.94968 153.091 9.2852 154.143 9.97714C155.194 10.6681 156.023 11.6928 156.642 13.0187L156.845 13.4542L152.953 15.4981L152.744 14.9824C152.485 14.3417 152.149 13.8988 151.756 13.6145C151.367 13.3329 150.886 13.1813 150.287 13.1813C149.688 13.1813 149.199 13.3488 148.795 13.67C148.466 13.9544 148.271 14.3847 148.271 15.0453C148.271 15.63 148.444 16.008 148.733 16.2598C149.159 16.5592 150.013 16.9897 151.34 17.5535C154.001 18.6644 155.853 19.778 156.779 20.9243L156.78 20.9254L156.387 21.2417L156.777 20.9234L156.779 20.9243C157.601 21.9339 158 23.1761 158 24.6169C158 26.8532 157.266 28.6765 155.767 30.0286L155.766 30.0291C154.316 31.3339 152.475 31.9719 150.287 31.9719C149.847 31.9719 149.381 31.9177 148.888 31.8133C148.894 31.8141 148.9 31.8149 148.906 31.8158L148.977 31.317L148.871 31.8096C148.877 31.8108 148.883 31.812 148.888 31.8133C148.377 31.7385 147.696 31.5613 146.858 31.2931L146.845 31.2893L146.834 31.285C145.936 30.9484 145.1 30.3404 144.321 29.4913C143.526 28.6251 142.922 27.5527 142.5 26.2875L142.352 25.8443L146.395 24.1501L146.577 24.6446C146.976 25.7293 147.495 26.4986 148.109 26.9961C148.717 27.4876 149.451 27.7403 150.338 27.7403C151.34 27.7403 152.023 27.4414 152.474 26.9102L152.479 26.9048L152.484 26.8995C153.009 26.3168 153.262 25.6632 153.262 24.9192C153.262 24.5079 153.188 24.1859 153.063 23.9354L153.05 23.9095L153.04 23.8823C152.945 23.6217 152.763 23.3798 152.461 23.1604L152.452 23.1536L152.443 23.1463C152.13 22.8967 151.824 22.6986 151.524 22.5487L151.514 22.5437L151.505 22.5385C151.222 22.3818 150.786 22.1709 150.185 21.9042L150.186 21.9047L150.388 21.4432L150.183 21.9035L150.185 21.9042C148.83 21.3116 147.712 20.7519 146.839 20.2245C145.972 19.7016 145.313 19.1911 144.905 18.6867L144.902 18.6829C144.179 17.7704 143.835 16.6288 143.835 15.2972C143.835 13.3735 144.428 11.8025 145.658 10.648L145.66 10.6454L145.663 10.6428ZM94.8708 11.6199V31.3674H90.2332V14.1947L94.8708 11.6199ZM0.00012207 9.45344H4.63769V22.1485C4.63769 24.2392 4.9754 25.5883 5.54012 26.3233C6.26677 27.2519 7.33277 27.7403 8.82159 27.7403C10.3104 27.7403 11.3764 27.2519 12.1031 26.3233C12.6678 25.5883 13.0055 24.2392 13.0055 22.1485V9.45344H17.643V22.5515C17.643 25.4372 16.9912 27.6835 15.5932 29.191L15.5903 29.1941C13.8391 31.0513 11.5675 31.9719 8.82159 31.9719C6.07559 31.9719 3.80407 31.0513 2.05285 29.1941L2.05001 29.191C0.651951 27.6835 0.00012207 25.4372 0.00012207 22.5515V9.45344ZM47.1595 9.45344H51.7971V31.3674H47.1595V9.45344Z" fill="#05160F"></path>
                    <path d="M94.7684 0.133301L94.771 3.33306L99.3053 0.637073L101.573 4.91911L90.2368 11.1817L90.2316 0.134754L94.7684 0.133301Z" fill="url(#paint0_linear_94_2297)"></path>
                  </g>
                  <defs>
                    <linearGradient id="paint0_linear_94_2297" x1="96.9867" y1="-4.40062" x2="96.9867" y2="11.1817" gradientUnits="userSpaceOnUse">
                      <stop stop-color="#2FAD81"></stop>
                      <stop offset="1" stop-color="#209265"></stop>
                    </linearGradient>
                    <clipPath id="clip0_94_2297">
                      <rect width="158" height="32" fill="white"></rect>
                    </clipPath>
                  </defs></svg>